<svg viewBox="0 0 3.03108891 4.25" xmlns="http://www.w3.org/2000/svg">
        <path d="M 1.73205081 0 L 2.59807621 0 L 3.03108891 .25 L 3.03108891 2.75 L 2.81458256 2.875 L 2.81458256 3.375 L 3.03108891 3.5 L 3.03108891 4 L 2.38156986 3.625 L 2.38156986 2.625 L 3.03108891 2.25 L 3.03108891 .75 L 1.73205081 0 L .4330127 .75 L .4330127 2.25 L 1.08253175 2.625 L 1.08253175 3.625 L .21650635 4.125 L 0 4 L 0 3.5 L .21650635 3.625 L .64951905 3.375 L .64951905 2.875 L .21650635 2.625 L 0 2.75 L 0 .25 L .21650635 .375 L .8660254 0 Z M 1.73205081 .5 L 2.59807621 1 L 2.59807621 2 L 1.94855716 2.375 L 1.94855716 3.875 L 2.59807621 4.25 L .8660254 4.25 L 1.51554446 3.875 L 1.51554446 2.375 L .8660254 2 L .8660254 1 L 1.73205081 .5 L 1.73205081 1 L 1.73205081 1 L 1.29903811 1.25 L 1.29903811 1.75 L 1.73205081 2 L 2.16506351 1.75 L 2.16506351 1.25 L 1.73205081 1 Z" fill="#373838"/>
        <path d="M 1.73205081 0 L 3.03108891 .75 L 3.03108891 2.25 L 2.38156986 2.625 L 2.38156986 3.625 L 3.03108891 4 L 3.03108891 4.25 L 2.59807621 4.25 L 1.94855716 3.875 L 1.94855716 2.375 L 2.59807621 2 L 2.59807621 1 L 1.73205081 .5 L .8660254 1 L .8660254 2 L 1.51554446 2.375 L 1.51554446 3.875 L .8660254 4.25 L 0 4.25 L 0 4 L .21650635 4.125 L 1.08253175 3.625 L 1.08253175 2.625 L .4330127 2.25 L .4330127 .75 Z M 3.03108891 0 L 3.03108891 .25 L 2.59807621 0 Z M .8660254 0 L .21650635 .375 L 0 .25 L 0 0 Z" fill="#fa6632"/>
        <path d="M 1.73205081 1 L 1.29903811 1.25 L 1.29903811 1.75 L 1.73205081 2 L 2.16506351 1.75 L 2.16506351 1.25 Z M 3.03108891 2.75 L 3.03108891 3.5 L 2.81458256 3.375 L 2.81458256 2.875 Z M .21650635 2.625 L .64951905 2.875 L .64951905 3.375 L .21650635 3.625 L 0 3.5 L 0 2.75 Z" fill="#b2123c"/>
</svg>
